# Blender v2.63 (sub 0) OBJ File: 'POI.blend'
# www.blender.org
mtllib POI-DISATANCE.mtl
o Plane.001_Plane.003
v 0.000000 0.000000 -1.750000
v 0.000000 -0.500000 -1.750000
v -0.000000 0.500000 -1.750000
v 0.000000 0.000000 -1.250000
v -0.000000 0.500000 -1.250000
v 0.000000 -0.500000 -1.250000
vt 0.250000 0.742188
vt 0.500000 0.742188
vt 0.500000 0.992188
vt 0.250000 0.992188
vt 0.750000 0.742188
vt 0.750000 0.992188
vn -1.000000 -0.000001 0.000000
g Plane.001_Plane.003__FitnessGirl.jpg
usemtl _FitnessGirl.jpg
s off
f 3/1/1 1/2/1 4/3/1
f 3/1/1 4/3/1 5/4/1
f 1/2/1 2/5/1 6/6/1
f 1/2/1 6/6/1 4/3/1
