# Blender v2.63 (sub 0) OBJ File: 'POI.blend'
# www.blender.org
mtllib POI.mtl
o Cylinder_Cylinder.001
v -0.499999 -0.000001 1.000001
v 0.500001 -0.000001 0.999999
v -0.499999 0.866025 0.500001
v 0.500001 0.866025 0.500000
v -0.500001 0.866026 -0.499999
v 0.499999 0.866026 -0.500000
v -0.500001 0.000001 -0.999999
v 0.499999 0.000001 -1.000001
v -0.500001 -0.866025 -0.500000
v 0.499999 -0.866025 -0.500001
v -0.499999 -0.866026 0.500000
v 0.500001 -0.866026 0.499999
v 0.500001 -0.000000 0.749999
v 0.500000 0.649519 0.375000
v 0.500000 0.649519 -0.375000
v 0.499999 0.000000 -0.750001
v 0.500000 -0.649519 -0.375001
v 0.500000 -0.649519 0.374999
v -0.499999 -0.000000 0.750001
v -0.500000 0.649519 0.375001
v -0.500000 0.649519 -0.374999
v -0.500001 0.000000 -0.749999
v -0.500000 -0.649519 -0.375000
v -0.500000 -0.649519 0.375000
v 0.400001 -0.000000 0.749999
v 0.400000 0.649519 0.375000
v 0.400000 0.649519 -0.375000
v 0.399999 0.000000 -0.750001
v 0.400000 -0.649519 -0.375001
v 0.400000 -0.649519 0.374999
v -0.399999 -0.000000 0.750001
v -0.400000 0.649519 0.375001
v -0.400000 0.649519 -0.374999
v -0.400001 0.000000 -0.749999
v -0.400000 -0.649519 -0.375000
v -0.400000 -0.649519 0.375000
v -0.400000 -0.000000 0.000001
v 0.400000 0.000000 -0.000001
vt 0.046875 0.945312
vt 0.875000 0.277344
vt 0.875000 0.714844
vt 0.500000 0.492188
vt 0.117188 0.714844
vt 0.117188 0.277344
vt 0.500000 0.929688
vt 0.500000 0.054688
vn 0.000001 0.499999 0.866026
vn 0.000000 1.000000 0.000001
vn -0.000001 0.500000 -0.866025
vn -0.000001 -0.500000 -0.866026
vn -0.000000 -1.000000 -0.000001
vn 0.000001 -0.500001 0.866025
vn 1.000000 0.000000 -0.000001
vn -1.000000 -0.000000 0.000001
vn -0.000001 0.500001 -0.866025
vn -0.000001 -0.499999 -0.866026
vn 0.000001 0.500000 0.866026
vn 0.000001 -0.500000 0.866025
g Cylinder_Cylinder.001__POI-R.png
usemtl _POI-R.png
s off
f 1/1/1 2/1/1 4/1/1
f 1/1/1 4/1/1 3/1/1
f 3/1/2 4/1/2 6/1/2
f 3/1/2 6/1/2 5/1/2
f 5/1/3 6/1/3 8/1/3
f 5/1/3 8/1/3 7/1/3
f 7/1/4 8/1/4 10/1/4
f 7/1/4 10/1/4 9/1/4
f 9/1/5 10/1/5 12/1/5
f 9/1/5 12/1/5 11/1/5
f 2/1/6 1/1/6 11/1/6
f 2/1/6 11/1/6 12/1/6
f 2/1/7 12/1/7 18/1/7
f 2/1/7 18/1/7 13/1/7
f 6/1/7 4/1/7 14/1/7
f 6/1/7 14/1/7 15/1/7
f 8/1/7 6/1/7 15/1/7
f 8/1/7 15/1/7 16/1/7
f 4/1/7 2/1/7 13/1/7
f 4/1/7 13/1/7 14/1/7
f 10/1/7 8/1/7 16/1/7
f 10/1/7 16/1/7 17/1/7
f 12/1/7 10/1/7 17/1/7
f 12/1/7 17/1/7 18/1/7
f 5/1/8 7/1/8 22/1/8
f 5/1/8 22/1/8 21/1/8
f 1/1/8 3/1/8 20/1/8
f 1/1/8 20/1/8 19/1/8
f 7/1/8 9/1/8 23/1/8
f 7/1/8 23/1/8 22/1/8
f 9/1/8 11/1/8 24/1/8
f 9/1/8 24/1/8 23/1/8
f 11/1/8 1/1/8 19/1/8
f 11/1/8 19/1/8 24/1/8
f 3/1/8 5/1/8 21/1/8
f 3/1/8 21/1/8 20/1/8
f 16/1/6 15/1/6 27/1/6
f 16/1/6 27/1/6 28/1/6
f 13/1/9 18/1/9 30/1/9
f 13/1/9 30/1/9 25/1/9
f 15/1/5 14/1/5 26/1/5
f 15/1/5 26/1/5 27/1/5
f 18/1/2 17/1/2 29/1/2
f 18/1/2 29/1/2 30/1/2
f 14/1/10 13/1/10 25/1/10
f 14/1/10 25/1/10 26/1/10
f 17/1/11 16/1/11 28/1/11
f 17/1/11 28/1/11 29/1/11
f 19/1/4 20/1/4 32/1/4
f 19/1/4 32/1/4 31/1/4
f 22/1/1 23/1/1 35/1/1
f 22/1/1 35/1/1 34/1/1
f 21/1/12 22/1/12 34/1/12
f 21/1/12 34/1/12 33/1/12
f 24/1/9 19/1/9 31/1/9
f 24/1/9 31/1/9 36/1/9
f 20/1/5 21/1/5 33/1/5
f 20/1/5 33/1/5 32/1/5
f 23/1/2 24/1/2 36/1/2
f 23/1/2 36/1/2 35/1/2
f 28/1/7 27/1/7 38/1/7
f 25/1/7 30/1/7 38/1/7
f 27/1/7 26/1/7 38/1/7
f 30/1/7 29/1/7 38/1/7
f 26/1/7 25/1/7 38/1/7
f 29/1/7 28/1/7 38/1/7
f 35/2/8 36/3/8 37/4/8
f 32/5/8 33/6/8 37/4/8
f 36/3/8 31/7/8 37/4/8
f 33/6/8 34/8/8 37/4/8
f 34/8/8 35/2/8 37/4/8
f 31/7/8 32/5/8 37/4/8
