# Blender v2.63 (sub 0) OBJ File: ''
# www.blender.org
mtllib POItest.mtl
o Plane
v 0.000001 1.000000 -0.000000
v -0.000001 -1.000000 0.000000
v 0.000000 0.000000 0.000000
v 0.000002 1.000000 0.500000
v -0.000001 -1.000000 0.500000
v 0.000001 1.000000 -0.500000
v -0.000002 -1.000000 -0.500000
v 0.000001 0.500000 -0.000000
v -0.000001 -0.500000 0.000000
v -0.000000 -0.000000 -0.500000
v 0.000000 0.000000 0.500000
v 0.000001 0.500000 0.500000
v 0.000000 0.500000 -0.500000
v -0.000001 -0.500000 -0.500000
v -0.000000 -0.500000 0.500000
vt 0.000000 0.500000
vt 0.000000 0.250000
vt 0.250000 0.250000
vt 0.250000 0.500000
vt 0.750000 0.250000
vt 0.750000 0.500000
vt 0.500000 0.500000
vt 0.500000 0.250000
vt 0.000000 0.750000
vt 0.250000 0.750000
vt 0.500000 0.750000
vt 1.000000 0.250000
vt 1.000000 0.500000
vt 0.750000 0.750000
vt 1.000000 0.750000
vn -1.000000 0.000001 0.000001
g Plane_Plane__POITest.png
usemtl _POITest.png
s off
f 1/1/1 6/2/1 13/3/1
f 1/1/1 13/3/1 8/4/1
f 14/5/1 9/6/1 3/7/1
f 14/5/1 3/7/1 10/8/1
f 4/9/1 1/1/1 8/4/1
f 4/9/1 8/4/1 12/10/1
f 3/7/1 11/11/1 12/10/1
f 3/7/1 12/10/1 8/4/1
f 10/8/1 3/7/1 8/4/1
f 10/8/1 8/4/1 13/3/1
f 7/12/1 2/13/1 9/6/1
f 7/12/1 9/6/1 14/5/1
f 9/6/1 15/14/1 11/11/1
f 9/6/1 11/11/1 3/7/1
f 2/13/1 5/15/1 15/14/1
f 2/13/1 15/14/1 9/6/1
