# Blender v2.63 (sub 0) OBJ File: ''
# www.blender.org
mtllib X.mtl
o Text_X
v 0.356000 0.114000 0.350000
v 0.238000 0.114000 0.350000
v 0.006000 0.114000 0.068000
v -0.229000 0.114000 0.350000
v -0.348000 0.114000 0.350000
v -0.054000 0.114000 -0.003000
v -0.327000 0.114000 -0.332000
v -0.208000 0.114000 -0.332000
v 0.006000 0.114000 -0.072000
v 0.219000 0.114000 -0.332000
v 0.337000 0.114000 -0.332000
v 0.065000 0.114000 -0.003000
v 0.356000 -0.114000 0.350000
v 0.238000 -0.114000 0.350000
v 0.006000 -0.114000 0.068000
v -0.229000 -0.114000 0.350000
v -0.348000 -0.114000 0.350000
v -0.054000 -0.114000 -0.003000
v -0.327000 -0.114000 -0.332000
v -0.208000 -0.114000 -0.332000
v 0.006000 -0.114000 -0.072000
v 0.219000 -0.114000 -0.332000
v 0.337000 -0.114000 -0.332000
v 0.065000 -0.114000 -0.003000
v 0.356000 -0.114000 0.350000
v 0.385685 -0.100000 0.364000
v 0.238000 -0.114000 0.350000
v 0.231389 -0.100000 0.364000
v 0.006000 -0.114000 0.068000
v 0.005931 -0.100000 0.089952
v -0.229000 -0.114000 0.350000
v -0.222443 -0.100000 0.364000
v -0.348000 -0.114000 0.350000
v -0.377880 -0.100000 0.364000
v -0.054000 -0.114000 -0.003000
v -0.072206 -0.100000 -0.003017
v -0.327000 -0.114000 -0.332000
v -0.356809 -0.100000 -0.346000
v -0.208000 -0.114000 -0.332000
v -0.201391 -0.100000 -0.346000
v 0.006000 -0.114000 -0.072000
v 0.005975 -0.100000 -0.094061
v 0.219000 -0.114000 -0.332000
v 0.212371 -0.100000 -0.346000
v 0.337000 -0.114000 -0.332000
v 0.366740 -0.100000 -0.346000
v 0.065000 -0.114000 -0.003000
v 0.083154 -0.100000 -0.002987
v 0.385685 -0.100000 0.364000
v 0.385685 0.100000 0.364000
v 0.231389 -0.100000 0.364000
v 0.231389 0.100000 0.364000
v 0.005931 -0.100000 0.089952
v 0.005931 0.100000 0.089952
v -0.222443 -0.100000 0.364000
v -0.222443 0.100000 0.364000
v -0.377880 -0.100000 0.364000
v -0.377880 0.100000 0.364000
v -0.072206 -0.100000 -0.003017
v -0.072206 0.100000 -0.003017
v -0.356809 -0.100000 -0.346000
v -0.356809 0.100000 -0.346000
v -0.201391 -0.100000 -0.346000
v -0.201391 0.100000 -0.346000
v 0.005975 -0.100000 -0.094061
v 0.005975 0.100000 -0.094061
v 0.212371 -0.100000 -0.346000
v 0.212371 0.100000 -0.346000
v 0.366740 -0.100000 -0.346000
v 0.366740 0.100000 -0.346000
v 0.083154 -0.100000 -0.002987
v 0.083154 0.100000 -0.002987
v 0.385685 0.100000 0.364000
v 0.356000 0.114000 0.350000
v 0.231389 0.100000 0.364000
v 0.238000 0.114000 0.350000
v 0.005931 0.100000 0.089952
v 0.006000 0.114000 0.068000
v -0.222443 0.100000 0.364000
v -0.229000 0.114000 0.350000
v -0.377880 0.100000 0.364000
v -0.348000 0.114000 0.350000
v -0.072206 0.100000 -0.003017
v -0.054000 0.114000 -0.003000
v -0.356809 0.100000 -0.346000
v -0.327000 0.114000 -0.332000
v -0.201391 0.100000 -0.346000
v -0.208000 0.114000 -0.332000
v 0.005975 0.100000 -0.094061
v 0.006000 0.114000 -0.072000
v 0.212371 0.100000 -0.346000
v 0.219000 0.114000 -0.332000
v 0.366740 0.100000 -0.346000
v 0.337000 0.114000 -0.332000
v 0.083154 0.100000 -0.002987
v 0.065000 0.114000 -0.003000
vn 0.000000 1.000000 0.000000
vn 0.000000 -1.000000 -0.000000
vn 0.354869 -0.919797 0.167364
vn -0.286386 -0.741722 0.606464
vn -0.001679 -0.843104 0.537706
vn 0.284707 -0.741203 0.607868
vn -0.353679 -0.920560 0.165716
vn -0.609577 -0.792718 -0.000549
vn -0.354106 -0.920286 -0.166295
vn 0.286325 -0.741691 -0.606525
vn -0.000610 -0.844325 -0.535813
vn -0.286935 -0.741874 -0.606006
vn 0.354534 -0.920011 -0.166875
vn 0.610645 -0.791864 0.000427
vn 0.904447 0.000000 0.426557
vn -0.426984 0.000000 0.904233
vn -0.003143 0.000000 0.999969
vn 0.424146 0.000000 0.905576
vn -0.905515 0.000000 0.424268
vn -0.999969 0.000000 -0.000885
vn -0.905118 0.000000 -0.425092
vn 0.426893 0.000000 -0.904294
vn -0.001129 0.000000 -0.999969
vn -0.427931 0.000000 -0.903775
vn 0.904752 0.000000 -0.425916
vn 0.999969 0.000000 0.000702
vn 0.354869 0.919797 0.167364
vn -0.286386 0.741722 0.606464
vn -0.001679 0.843104 0.537706
vn 0.284707 0.741203 0.607868
vn -0.353679 0.920560 0.165716
vn -0.609577 0.792718 -0.000549
vn -0.354106 0.920286 -0.166295
vn 0.286325 0.741691 -0.606525
vn -0.000610 0.844325 -0.535813
vn -0.286935 0.741874 -0.606006
vn 0.354534 0.920011 -0.166875
vn 0.610645 0.791864 0.000427
g Text_X_
usemtl 
s off
f 6//1 8//1 7//1
f 6//1 9//1 8//1
f 9//1 11//1 10//1
f 9//1 12//1 11//1
f 6//1 12//1 9//1
f 5//1 12//1 6//1
f 5//1 3//1 12//1
f 3//1 1//1 12//1
f 5//1 4//1 3//1
f 2//1 1//1 3//1
f 20//2 18//2 19//2
f 21//2 18//2 20//2
f 23//2 21//2 22//2
f 24//2 21//2 23//2
f 24//2 18//2 21//2
f 24//2 17//2 18//2
f 15//2 17//2 24//2
f 13//2 15//2 24//2
f 16//2 17//2 15//2
f 13//2 14//2 15//2
s 1
f 26//3 28//4 27//4
f 26//3 27//4 25//3
f 28//4 30//5 29//5
f 28//4 29//5 27//4
f 30//5 32//6 31//6
f 30//5 31//6 29//5
f 32//6 34//7 33//7
f 32//6 33//7 31//6
f 34//7 36//8 35//8
f 34//7 35//8 33//7
f 36//8 38//9 37//9
f 36//8 37//9 35//8
f 38//9 40//10 39//10
f 38//9 39//10 37//9
f 40//10 42//11 41//11
f 40//10 41//11 39//10
f 42//11 44//12 43//12
f 42//11 43//12 41//11
f 44//12 46//13 45//13
f 44//12 45//13 43//12
f 46//13 48//14 47//14
f 46//13 47//14 45//13
f 48//14 26//3 25//3
f 48//14 25//3 47//14
f 50//15 52//16 51//16
f 50//15 51//16 49//15
f 52//16 54//17 53//17
f 52//16 53//17 51//16
f 54//17 56//18 55//18
f 54//17 55//18 53//17
f 56//18 58//19 57//19
f 56//18 57//19 55//18
f 58//19 60//20 59//20
f 58//19 59//20 57//19
f 60//20 62//21 61//21
f 60//20 61//21 59//20
f 62//21 64//22 63//22
f 62//21 63//22 61//21
f 64//22 66//23 65//23
f 64//22 65//23 63//22
f 66//23 68//24 67//24
f 66//23 67//24 65//23
f 68//24 70//25 69//25
f 68//24 69//25 67//24
f 70//25 72//26 71//26
f 70//25 71//26 69//25
f 72//26 50//15 49//15
f 72//26 49//15 71//26
f 74//27 76//28 75//28
f 74//27 75//28 73//27
f 76//28 78//29 77//29
f 76//28 77//29 75//28
f 78//29 80//30 79//30
f 78//29 79//30 77//29
f 80//30 82//31 81//31
f 80//30 81//31 79//30
f 82//31 84//32 83//32
f 82//31 83//32 81//31
f 84//32 86//33 85//33
f 84//32 85//33 83//32
f 86//33 88//34 87//34
f 86//33 87//34 85//33
f 88//34 90//35 89//35
f 88//34 89//35 87//34
f 90//35 92//36 91//36
f 90//35 91//36 89//35
f 92//36 94//37 93//37
f 92//36 93//37 91//36
f 94//37 96//38 95//38
f 94//37 95//38 93//37
f 96//38 74//27 73//27
f 96//38 73//27 95//38
